<svg xmlns="http://www.w3.org/2000/svg" width="96" height="96" viewBox="0 0 96 96">
<defs>
<linearGradient id="bg" x1="0" y1="0" x2="1" y2="1"><stop offset="0%" stop-color="#f3e5f5" stop-opacity="0.18"/><stop offset="0%" stop-color="#86517a"/><stop offset="100%" stop-color="#111822"/></linearGradient>
</defs>
<rect x="10" y="10" width="76" height="76" fill="url(#bg)" stroke="#d6bddc" stroke-width="2" rx="16" ry="16"/>
<rect x="12" y="12" width="72" height="72" fill="none" stroke="#ffffff20" stroke-width="1" rx="14" ry="14"/>
<path d="M 16 28 A 28 14 0 0 1 80 24" fill="none" stroke="#ffffff55" stroke-width="2" stroke-linecap="round"/>
<rect x="18" y="72" width="60" height="4" fill="#ffffff10" rx="2" ry="2"/>
<polygon points="20.0,50.0 76.0,50.0 68.0,66.0 28.0,66.0" fill="(155, 112, 145)"/>
<polyline points="20.0,50.0 76.0,50.0" fill="none" stroke="#d6bddc" stroke-width="3" stroke-linecap="round" stroke-linejoin="round"/>
<circle cx="36" cy="42" r="2" fill="#f3e5f5"/>
<circle cx="46" cy="38" r="2" fill="#f3e5f5"/>
<circle cx="56" cy="42" r="2" fill="#f3e5f5"/>
<circle cx="50" cy="46" r="2" fill="#f3e5f5"/>
<polygon points="48.0,20.0 60.0,38.0 36.0,38.0" fill="#d6bddc"/>
</svg>